<?xml version="1.0" encoding="UTF-8"?><svg id="Layer_2" xmlns="http://www.w3.org/2000/svg" viewBox="0 0 77.43 81.87"><defs><style>.cls-1{stroke:#645da2;}.cls-1,.cls-2{fill:none;stroke-linecap:round;stroke-miterlimit:10;stroke-width:3px;}.cls-2{stroke:#fff;}</style></defs><g id="Base"><path class="cls-2" d="M21.63,80.37c-4.95-30.91-5.13-48.2,17.99-52.94,26.24-5.37,29.8,24.37,24.84,52.94"/><path class="cls-1" d="M33.41,57.35c4.28,3.56,9.66,4.39,16.3,0"/><line class="cls-1" x1="48.5" y1="46.08" x2="48.5" y2="44.62"/><line class="cls-1" x1="35.89" y1="46.08" x2="35.89" y2="43.76"/><path class="cls-1" d="M25.05,44.62C-.49,49.16-1.44,37.2,4.53,32.43c11.45-9.14,15.94-.98,12.33,1.98-4.29,3.52-14.26-6-7.05-14.09,6.59-7.4,20.7-4.29,16.07,1.54-3.91,4.94-17.5-11.01,2.75-17.06,20.2-6.04,22.92,16.43,14.22,15.41-9.09-1.06,1.95-19.81,12.83-18.66,10.87,1.15,16.87,29.56,6.03,24.58-7.94-3.65-1.15-13.51,10.29-6.14,10.71,6.9-4,12.5-4.16,17.61"/></g></svg>