<?xml version="1.0" encoding="UTF-8"?><svg id="Layer_2" xmlns="http://www.w3.org/2000/svg" viewBox="0 0 71.9 51.44"><defs><style>.cls-1{stroke-linejoin:round;}.cls-1,.cls-2{stroke:#645da2;}.cls-1,.cls-2,.cls-3{fill:none;stroke-linecap:round;stroke-width:3px;}.cls-2,.cls-3{stroke-miterlimit:10;}.cls-3{stroke:#a29af1;}</style></defs><g id="Base"><path class="cls-3" d="M2.95,49.94C-3.65,12.48,13.24,3.31,34.39,1.6,54.55-.03,75.01,18.09,69.49,49.94"/><line class="cls-2" x1="40.13" y1="23.64" x2="40.13" y2="22.64"/><line class="cls-2" x1="25.6" y1="24.19" x2="25.6" y2="23.85"/><path class="cls-1" d="M38.96,18.95l2.01-.29c2.37-.35,4.55,1.37,4.77,3.75l.02.18c.22,2.36-1.57,4.43-3.94,4.56l-2.03.11c-2.18.12-4.09-1.46-4.37-3.63h0c-.3-2.27,1.28-4.35,3.54-4.68Z"/><path class="cls-1" d="M23.89,20.08l2.12-.24c2.19-.25,4.19,1.28,4.53,3.46l.02.12c.37,2.4-1.41,4.59-3.83,4.73l-2.14.12c-2.15.12-4.02-1.43-4.31-3.57h0c-.3-2.28,1.33-4.36,3.61-4.62Z"/><path class="cls-1" d="M30.55,23.29c0-3.5,4.84-3.45,4.84-.14"/><path class="cls-1" d="M45.74,22.41c.31-2.43,4.68-3.83,6.17-2.18"/><path class="cls-1" d="M20.29,24.7c-.17-1.49-5.7-1.25-7.1,1.15"/></g></svg>