<?xml version="1.0" encoding="UTF-8"?><svg id="Layer_2" xmlns="http://www.w3.org/2000/svg" viewBox="0 0 62.3 71.21"><defs><style>.cls-1{stroke:#a0a0a5;}.cls-1,.cls-2{fill:none;stroke-linecap:round;stroke-miterlimit:10;stroke-width:3px;}.cls-2{stroke:#00bab0;}</style></defs><g id="Base"><path class="cls-1" d="M10.27,69.71c.44-15.73-5.87-38.45,6.61-48,5.94-4.55,21.62-6.83,27.23-1.88,9.06,7.99-2.57,39.53,10.86,49.88"/><path class="cls-2" d="M35.12,34.89c-1.03-.5-2.31-.17-2.31-.17"/><line class="cls-2" x1="23.25" y1="35.88" x2="23.25" y2="33.93"/><path class="cls-2" d="M31.82,47.83c-1.35,1.4-4.37,1.51-6.06,0"/><path class="cls-2" d="M1.56,35.55c-.67,3.97,4.25,3.58,5.76-.11s-4.98-4.19-4.03-8.84,7.49-.28,9.17-3.91c1.88-4.06-6.38-4.75-3.86-9s9.9,1.79,12.97-.5-3.77-8.89.44-11.17c4.61-2.49,4.13,4.8,9.07,6.36,4.98,1.57,5.67-4.43,10.31-2.36,4.68,2.09-1.57,9.79,5.09,8.11,6.15-1.55,7.7,4.16,4.25,9.51-2.96,4.59,6.56,13.17,9.84,3.91.94-2.64-1.24-5.3-4.5-4.22"/></g></svg>