<?xml version="1.0" encoding="UTF-8"?><svg id="Layer_2" xmlns="http://www.w3.org/2000/svg" viewBox="0 0 61.4 63.19"><defs><style>.cls-1{stroke:#645da2;}.cls-1,.cls-2{fill:none;stroke-linecap:round;stroke-miterlimit:10;stroke-width:3px;}.cls-2{stroke:#ffff7d;}</style></defs><g id="Base"><path class="cls-1" d="M8.16,61.69c-.66-31.71-3.69-48.36,19.43-53.09,26.24-5.37,25.52,24.34,26.71,53.09"/><path class="cls-2" d="M23.9,42.06c2.64,3.11,8.92,3.39,11.56,0"/><path class="cls-2" d="M35.46,28.75c1.16.77,3.58.77,4.73.11"/><path class="cls-2" d="M24.4,28.92c-1.27.88-3.46.88-5.01.06"/><path class="cls-2" d="M30.58,10.94C18.06,6.84,2.24,10.17,1.5,33.71"/><path class="cls-2" d="M30.58,10.94C21.4.13,6.62,13.31,2.49,9.6"/><path class="cls-2" d="M26.4,7.59c2.57-5.48,16.54-10.48,24.45.17"/><path class="cls-2" d="M30.58,10.94c7.58,3.03,7.82,6.83,12.78,6.83"/><path class="cls-2" d="M30.58,10.94c9.41-9.7,31.32,3.8,29.17,26.83"/></g></svg>