<?xml version="1.0" encoding="UTF-8"?><svg id="Layer_2" xmlns="http://www.w3.org/2000/svg" viewBox="0 0 66.34 62.97"><defs><style>.cls-1{stroke:#1f1f1f;}.cls-1,.cls-2{fill:none;stroke-linecap:round;stroke-miterlimit:10;stroke-width:3px;}.cls-2{stroke:#ffff7d;}</style></defs><g id="Base"><path class="cls-1" d="M17.37,61.47c-9.91-29.06-1.47-43.4,4.64-46.87,6.51-3.69,20.15-4.11,25.76.84,9.06,7.99,9.68,32.15,3.29,46.03"/><path class="cls-2" d="M39,30.8c-.99-2.86,0-4.33,0-4.33"/><path class="cls-2" d="M38.56,40.34c-1.68,3.23-7.12,3.71-9.8,0"/><path class="cls-2" d="M27.71,30.14c.39-1.5,0-3.67,0-3.67"/><path class="cls-2" d="M63.92,43.21c4.01-4.86-6.61-16.52-3.14-24.12,3.9-8.54-7.71-5.95-13.01-12.91-5.94-7.8-24.12-4.62-30.06.5-5.27,4.54-2.09,9.52-13.54,18.66-5.97,4.77,4.1,15.71-2.67,20.83"/></g></svg>