<?xml version="1.0" encoding="UTF-8"?><svg id="Layer_2" xmlns="http://www.w3.org/2000/svg" viewBox="0 0 54.63 55.51"><defs><style>.cls-1{stroke:#645da2;}.cls-1,.cls-2{fill:none;stroke-linecap:round;stroke-miterlimit:10;stroke-width:3px;}.cls-2{stroke:#fff;}</style></defs><g id="Base"><path class="cls-2" d="M9.2,54.01C3.59,18.56,12.86,15.13,27,13.78c18.5-1.76,26.33,11.66,21.38,40.23"/><line class="cls-1" x1="34.13" y1="33.39" x2="34.13" y2="32.39"/><line class="cls-1" x1="22.7" y1="32.73" x2="22.7" y2="32.39"/><path class="cls-1" d="M2.12,25.76c3.8-5.12-1.93-9.69-.33-12.88,1.32-2.64,7.1,0,10.24-1.93,3.34-2.06-.33-8.75,6.11-9.41,5.28-.54,4.72,5.08,8.68,5.89,3.8.78,9.39-6.5,12.62-4.57,4.82,2.87-.22,9.66,2.76,12.47,2.97,2.81,7.93-1.82,10.24,1.82,2.78,4.37-3.8,6.28-1.82,11.06"/></g></svg>