<?xml version="1.0" encoding="UTF-8"?><svg id="Layer_2" xmlns="http://www.w3.org/2000/svg" viewBox="0 0 50.43 68.34"><defs><style>.cls-1{stroke:#fff;}.cls-1,.cls-2{fill:none;stroke-linecap:round;stroke-miterlimit:10;stroke-width:3px;}.cls-2{stroke:#fb6a02;}</style></defs><g id="Base"><path class="cls-1" d="M11.06,66.84C-9.42,29.19,6.71,14.11,24.77,13.44c20.8-.76,33.7,16.4,15.42,53.39"/><path class="cls-2" d="M17.48,46.95c2.06,6.85,12.77,7.51,14.97.72"/><line class="cls-2" x1="29.75" y1="36.09" x2="29.75" y2="32.84"/><line class="cls-2" x1="19.54" y1="37.25" x2="19.54" y2="34.93"/><path class="cls-2" d="M29.22,18.67c3.63-3.77-.39-10.05,3.91-12.94s10.02-.72,9.44,4.32"/><path class="cls-2" d="M3.08,14.68c0-5.7,8.83-5.74,8.83-.17,0,8.42,12.85,10.24,12.85-1.07,0-19.82-10.4-4.95-13.38-11.94"/></g></svg>